<?xml version="1.0" encoding="UTF-8" standalone="no"?>
<!-- Created with Inkscape (http://www.inkscape.org/) -->

<svg
   xmlns:dc="http://purl.org/dc/elements/1.1/"
   xmlns:cc="http://creativecommons.org/ns#"
   xmlns:rdf="http://www.w3.org/1999/02/22-rdf-syntax-ns#"
   xmlns:svg="http://www.w3.org/2000/svg"
   xmlns="http://www.w3.org/2000/svg"
   xmlns:sodipodi="http://sodipodi.sourceforge.net/DTD/sodipodi-0.dtd"
   xmlns:inkscape="http://www.inkscape.org/namespaces/inkscape"
   width="150"
   height="150"
   id="svg2985"
   version="1.1"
   inkscape:version="0.48.2 r9819"
   sodipodi:docname="saddle10.eps">
  <defs
     id="defs2987">
    <marker
       inkscape:stockid="Arrow2Lstart"
       orient="auto"
       refY="0.0"
       refX="0.0"
       id="Arrow2Lstart"
       style="overflow:visible">
      <path
         id="path3819"
         style="font-size:12.0;fill-rule:evenodd;stroke-width:0.62500000;stroke-linejoin:round"
         d="M 8.7185878,4.0337352 L -2.2072895,0.016013256 L 8.7185884,-4.0017078 C 6.9730900,-1.6296469 6.9831476,1.6157441 8.7185878,4.0337352 z "
         transform="scale(1.1) translate(1,0)" />
    </marker>
    <marker
       inkscape:stockid="Arrow2Lend"
       orient="auto"
       refY="0.0"
       refX="0.0"
       id="Arrow2Lend"
       style="overflow:visible;">
      <path
         id="path3822"
         style="font-size:12.0;fill-rule:evenodd;stroke-width:0.62500000;stroke-linejoin:round;"
         d="M 8.7185878,4.0337352 L -2.2072895,0.016013256 L 8.7185884,-4.0017078 C 6.9730900,-1.6296469 6.9831476,1.6157441 8.7185878,4.0337352 z "
         transform="scale(1.1) rotate(180) translate(1,0)" />
    </marker>
  </defs>
  <sodipodi:namedview
     id="base"
     pagecolor="#ffffff"
     bordercolor="#666666"
     borderopacity="1.0"
     inkscape:pageopacity="0.0"
     inkscape:pageshadow="2"
     inkscape:zoom="62.49711"
     inkscape:cx="80.224823"
     inkscape:cy="75.913083"
     inkscape:document-units="px"
     inkscape:current-layer="layer1-5"
     showgrid="true"
     units="px"
     inkscape:window-width="1680"
     inkscape:window-height="943"
     inkscape:window-x="0"
     inkscape:window-y="0"
     inkscape:window-maximized="1"
     inkscape:object-paths="true"
     inkscape:snap-nodes="true"
     inkscape:snap-intersection-paths="true"
     inkscape:snap-center="true"
     inkscape:snap-object-midpoints="true"
     inkscape:snap-global="false">
    <inkscape:grid
       type="xygrid"
       id="grid2993"
       units="px"
       empspacing="5"
       visible="true"
       enabled="true"
       snapvisiblegridlinesonly="true"
       spacingx="1px"
       spacingy="1px" />
  </sodipodi:namedview>
  <metadata
     id="metadata2990">
    <rdf:RDF>
      <cc:Work
         rdf:about="">
        <dc:format>image/svg+xml</dc:format>
        <dc:type
           rdf:resource="http://purl.org/dc/dcmitype/StillImage" />
        <dc:title></dc:title>
      </cc:Work>
    </rdf:RDF>
  </metadata>
  <g
     inkscape:label="Layer 1"
     inkscape:groupmode="layer"
     id="layer1"
     transform="translate(0,-902.36221)">
    <path
       style="fill:none;stroke:#000000;stroke-width:1px;stroke-linecap:butt;stroke-linejoin:miter;stroke-opacity:1"
       d="m 0,977.36221 c 149.99998,0 150,0 150,0"
       id="path2995"
       inkscape:connector-curvature="0"
       sodipodi:nodetypes="cc" />
    <path
       sodipodi:nodetypes="cc"
       inkscape:connector-curvature="0"
       id="path5528"
       d="m 1.55e-6,977.39744 c 18.75000045,0 25.00000045,0 25.00000045,0"
       style="fill:none;stroke:#000000;stroke-width:1;stroke-linecap:butt;stroke-linejoin:miter;stroke-miterlimit:4;stroke-opacity:1;stroke-dasharray:none;marker-end:url(#Arrow2Lend)" />
    <path
       style="fill:none;stroke:#000000;stroke-width:0.99999982;stroke-linecap:butt;stroke-linejoin:miter;stroke-miterlimit:4;stroke-opacity:1;stroke-dasharray:none;marker-end:url(#Arrow2Lend)"
       d="m 150,977.29175 c -18.75,0 -25,0 -25,0"
       id="path5530"
       inkscape:connector-curvature="0"
       sodipodi:nodetypes="cc" />
    <path
       sodipodi:nodetypes="cc"
       inkscape:connector-curvature="0"
       id="path6869"
       d="m 0,977.36221 c 149.99998,0 150,0 150,0"
       style="fill:none;stroke:#000000;stroke-width:1px;stroke-linecap:butt;stroke-linejoin:miter;stroke-opacity:1" />
    <path
       style="fill:#00000d;fill-opacity:0;stroke:#000000;stroke-width:1px;stroke-linecap:butt;stroke-linejoin:miter;stroke-opacity:1"
       d="m 150,977.36219 c -149.99998,0 -150,0 -150,0"
       id="path6887"
       inkscape:connector-curvature="0"
       sodipodi:nodetypes="cc" />
    <path
       sodipodi:nodetypes="cc"
       inkscape:connector-curvature="0"
       id="path6905"
       d="m 0,977.36219 c 149.99998,0 150,0 150,0"
       style="fill:#00000d;fill-opacity:0;stroke:#000000;stroke-width:1px;stroke-linecap:butt;stroke-linejoin:miter;stroke-opacity:1" />
    <path
       style="fill:#00000d;fill-opacity:0;stroke:#000000;stroke-width:1px;stroke-linecap:butt;stroke-linejoin:miter;stroke-opacity:1"
       d="m 150,977.3622 c -149.99998,0 -150,0 -150,0"
       id="path6923"
       inkscape:connector-curvature="0"
       sodipodi:nodetypes="cc" />
    <path
       style="fill:none;stroke:#000000;stroke-width:1px;stroke-linecap:butt;stroke-linejoin:miter;stroke-opacity:1"
       d="m 75,977.36221 -50,-68.75"
       id="path7924"
       inkscape:connector-curvature="0" />
    <path
       inkscape:connector-curvature="0"
       id="path7926"
       d="M 62.511346,959.85369 C 58.75,954.86221 58.75,954.86221 58.75,954.86221"
       style="fill:none;stroke:#000000;stroke-width:1px;stroke-linecap:butt;stroke-linejoin:miter;stroke-opacity:1;marker-start:url(#Arrow2Lstart)" />
    <path
       sodipodi:nodetypes="cc"
       inkscape:connector-curvature="0"
       id="path7953"
       d="m 150,977.36216 c -149.99998,0 -150,0 -150,0"
       style="fill:none;stroke:#000000;stroke-width:1px;stroke-linecap:butt;stroke-linejoin:miter;stroke-opacity:1" />
    <path
       inkscape:connector-curvature="0"
       id="path7959"
       d="M 75.311835,1006.9057 C 70,1003.6122 70,1003.6122 70,1003.6122"
       style="fill:none;stroke:#000000;stroke-width:1px;stroke-linecap:butt;stroke-linejoin:miter;stroke-opacity:1;marker-start:url(#Arrow2Lstart)" />
    <path
       style="fill:none;stroke:#000000;stroke-width:1px;stroke-linecap:butt;stroke-linejoin:miter;stroke-opacity:1"
       d="m 150,977.36216 c -149.99998,0 -150,0 -150,0"
       id="path7961"
       inkscape:connector-curvature="0"
       sodipodi:nodetypes="cc" />
    <path
       sodipodi:nodetypes="cc"
       style="fill:none;stroke:#000000;stroke-width:1px;stroke-linecap:butt;stroke-linejoin:miter;stroke-opacity:1"
       d="m 6.25,983.61217 c 62.5,0 112.5,62.50003 112.5,62.50003"
       id="path7967"
       inkscape:connector-curvature="0" />
    <path
       sodipodi:nodetypes="cc"
       inkscape:connector-curvature="0"
       id="path7969"
       d="m 0,977.36226 c 149.99998,0 150,0 150,0"
       style="fill:#00000d;fill-opacity:0;stroke:#000000;stroke-width:1px;stroke-linecap:butt;stroke-linejoin:miter;stroke-opacity:1" />
    <path
       style="fill:#00000d;fill-opacity:0;stroke:#000000;stroke-width:1px;stroke-linecap:butt;stroke-linejoin:miter;stroke-opacity:1"
       d="m 150,977.36226 c -149.99998,0 -150,0 -150,0"
       id="path7975"
       inkscape:connector-curvature="0"
       sodipodi:nodetypes="cc" />
    <path
       sodipodi:nodetypes="cc"
       inkscape:connector-curvature="0"
       id="path7981"
       d="m 0,977.36216 c 149.99998,0 150,0 150,0"
       style="fill:#00000d;fill-opacity:0;stroke:#000000;stroke-width:1px;stroke-linecap:butt;stroke-linejoin:miter;stroke-opacity:1" />
    <path
       sodipodi:nodetypes="cc"
       inkscape:connector-curvature="0"
       id="path7987"
       d="m 143.75,983.61216 c -62.5,0 -12.5,62.50004 -12.5,62.50004"
       style="fill:#00000d;fill-opacity:0;stroke:#000000;stroke-width:1px;stroke-linecap:butt;stroke-linejoin:miter;stroke-opacity:1" />
    <path
       inkscape:connector-curvature="0"
       id="path7989"
       d="m 114.33058,995.53161 c 4.41942,-4.4194 4.41942,-4.4194 4.41942,-4.4194"
       style="fill:#00000d;fill-opacity:0;stroke:#000000;stroke-width:1px;stroke-linecap:butt;stroke-linejoin:miter;stroke-opacity:1;marker-start:url(#Arrow2Lstart)" />
    <path
       inkscape:connector-curvature="0"
       id="path7991"
       d="m 75,977.36216 50,68.75004"
       style="fill:none;stroke:#000000;stroke-width:1px;stroke-linecap:butt;stroke-linejoin:miter;stroke-opacity:1" />
    <path
       style="fill:none;stroke:#000000;stroke-width:1px;stroke-linecap:butt;stroke-linejoin:miter;stroke-opacity:1;marker-start:url(#Arrow2Lstart)"
       d="M 93.761346,1003.6036 C 90,998.61221 90,998.61221 90,998.61221"
       id="path7993"
       inkscape:connector-curvature="0" />
    <path
       style="fill:none;stroke:#000000;stroke-width:1px;stroke-linecap:butt;stroke-linejoin:miter;stroke-opacity:1"
       d="M 150,37.5 C 62.5,31.25 75,75 75,75"
       id="path8075"
       inkscape:connector-curvature="0"
       transform="translate(0,902.36221)" />
    <path
       style="fill:none;stroke:#000000;stroke-width:1px;stroke-linecap:butt;stroke-linejoin:miter;stroke-opacity:1"
       d="M 150,18.75 C 50,12.5 75,75 75,75"
       id="path8077"
       inkscape:connector-curvature="0"
       transform="translate(0,902.36221)" />
    <path
       style="fill:none;stroke:#000000;stroke-width:1px;stroke-linecap:butt;stroke-linejoin:miter;stroke-opacity:1"
       d="M 6.25,56.25 C 56.25,56.25 75,75 75,75"
       id="path8079"
       inkscape:connector-curvature="0"
       transform="translate(0,902.36221)" />
    <path
       style="fill:none;stroke:#000000;stroke-width:1px;stroke-linecap:butt;stroke-linejoin:miter;stroke-opacity:1;marker-start:url(#Arrow2Lstart)"
       d="M 49.659496,964.39703 C 43.75,962.36221 43.75,962.36221 43.75,962.36221"
       id="path8081"
       inkscape:connector-curvature="0" />
    <path
       inkscape:connector-curvature="0"
       id="path8083"
       d="M 100.04655,943.12389 C 106.25,942.36221 106.25,942.36221 106.25,942.36221"
       style="fill:none;stroke:#000000;stroke-width:1px;stroke-linecap:butt;stroke-linejoin:miter;stroke-opacity:1;marker-start:url(#Arrow2Lstart)" />
    <path
       style="fill:none;stroke:#000000;stroke-width:1px;stroke-linecap:butt;stroke-linejoin:miter;stroke-opacity:1;marker-start:url(#Arrow2Lstart)"
       d="M 84.758274,934.51622 C 90,931.11221 90,931.11221 90,931.11221"
       id="path8085"
       inkscape:connector-curvature="0" />
    <g
       transform="matrix(1,0,0,-1,59.939465,2014.921)"
       id="layer1-5"
       inkscape:label="Layer 1">
      <path
         transform="translate(0,1022.3622)"
         inkscape:connector-curvature="0"
         id="path3952"
         d="m 13,15 c 4,0 4,0 4,0"
         style="fill:none;stroke:#000000;stroke-width:0.60000002;stroke-linecap:butt;stroke-linejoin:miter;stroke-miterlimit:4;stroke-opacity:1;stroke-dasharray:none" />
      <g
         transform="matrix(1,0,0,-1,0.0720031,2074.9004)"
         id="layer1-3"
         inkscape:label="Layer 1">
        <path
           transform="translate(0,1022.3622)"
           d="m 18,15 c 0,1.656854 -1.343146,3 -3,3 -1.656854,0 -3,-1.343146 -3,-3 0,-1.656854 1.343146,-3 3,-3 1.656854,0 3,1.343146 3,3 z"
           sodipodi:ry="3"
           sodipodi:rx="3"
           sodipodi:cy="15"
           sodipodi:cx="15"
           id="path4438"
           style="fill:#ffffff;fill-opacity:1;stroke:#000000;stroke-width:1;stroke-miterlimit:4;stroke-opacity:1;stroke-dasharray:none"
           sodipodi:type="arc" />
        <path
           transform="translate(0,1022.3622)"
           inkscape:connector-curvature="0"
           id="path4478"
           d="m 12,15 c 6,0 6,0 6,0"
           style="fill:none;stroke:#000000;stroke-width:1px;stroke-linecap:butt;stroke-linejoin:miter;stroke-opacity:1" />
        <path
           transform="translate(0,1022.3622)"
           inkscape:connector-curvature="0"
           id="path4480"
           d="m 13,14 c 2,-1 3,0 3,0 l 0,0"
           style="fill:none;stroke:#000000;stroke-width:1px;stroke-linecap:butt;stroke-linejoin:miter;stroke-opacity:1" />
        <path
           transform="translate(0,1022.3622)"
           inkscape:connector-curvature="0"
           id="path4482"
           d="m 15,12 c 3,2 0,2 0,2"
           style="fill:none;stroke:#000000;stroke-width:1px;stroke-linecap:butt;stroke-linejoin:miter;stroke-opacity:1" />
        <path
           transform="translate(0,1022.3622)"
           inkscape:connector-curvature="0"
           id="path4484"
           d="M 18,15 C 15,13 17,14 17,14"
           style="fill:none;stroke:#000000;stroke-width:1px;stroke-linecap:butt;stroke-linejoin:miter;stroke-opacity:1" />
        <path
           transform="translate(0,1022.3622)"
           inkscape:connector-curvature="0"
           id="path4486"
           d="M 18,14 15,13"
           style="fill:none;stroke:#000000;stroke-width:1px;stroke-linecap:butt;stroke-linejoin:miter;stroke-opacity:1" />
        <path
           transform="translate(0,1022.3622)"
           inkscape:connector-curvature="0"
           id="path4488"
           d="m 15,13 -3,2"
           style="fill:none;stroke:#000000;stroke-width:1px;stroke-linecap:butt;stroke-linejoin:miter;stroke-opacity:1" />
        <path
           transform="translate(0,1022.3622)"
           inkscape:connector-curvature="0"
           id="path4490"
           d="m 17,14 -4,1"
           style="fill:none;stroke:#000000;stroke-width:1px;stroke-linecap:butt;stroke-linejoin:miter;stroke-opacity:1" />
        <path
           transform="translate(0,1022.3622)"
           inkscape:connector-curvature="0"
           id="path4492"
           d="m 15,12 0,3"
           style="fill:none;stroke:#000000;stroke-width:1px;stroke-linecap:butt;stroke-linejoin:miter;stroke-opacity:1" />
        <path
           transform="translate(0,1022.3622)"
           inkscape:connector-curvature="0"
           id="path4494"
           d="m 14,12 1,3"
           style="fill:none;stroke:#000000;stroke-width:1px;stroke-linecap:butt;stroke-linejoin:miter;stroke-opacity:1" />
        <path
           transform="translate(0,1022.3622)"
           inkscape:connector-curvature="0"
           id="path4496"
           d="m 13,13 2,2"
           style="fill:none;stroke:#000000;stroke-width:1px;stroke-linecap:butt;stroke-linejoin:miter;stroke-opacity:1" />
        <path
           transform="translate(0,1022.3622)"
           inkscape:connector-curvature="0"
           id="path4498"
           d="m 14,12 0,3"
           style="fill:none;stroke:#000000;stroke-width:1px;stroke-linecap:butt;stroke-linejoin:miter;stroke-opacity:1" />
        <path
           transform="translate(0,1022.3622)"
           inkscape:connector-curvature="0"
           id="path4500"
           d="m 13,13 0,2"
           style="fill:none;stroke:#000000;stroke-width:1px;stroke-linecap:butt;stroke-linejoin:miter;stroke-opacity:1" />
      </g>
    </g>
  </g>
</svg>
