<?xml version="1.0" encoding="UTF-8" standalone="no"?>
<!-- Created with Inkscape (http://www.inkscape.org/) -->

<svg
   xmlns:dc="http://purl.org/dc/elements/1.1/"
   xmlns:cc="http://creativecommons.org/ns#"
   xmlns:rdf="http://www.w3.org/1999/02/22-rdf-syntax-ns#"
   xmlns:svg="http://www.w3.org/2000/svg"
   xmlns="http://www.w3.org/2000/svg"
   xmlns:sodipodi="http://sodipodi.sourceforge.net/DTD/sodipodi-0.dtd"
   xmlns:inkscape="http://www.inkscape.org/namespaces/inkscape"
   width="150"
   height="150"
   id="svg9100"
   version="1.1"
   inkscape:version="0.48.2 r9819"
   sodipodi:docname="stablespiral.svg">
  <defs
     id="defs9102">
    <marker
       inkscape:stockid="Arrow2Lstart"
       orient="auto"
       refY="0.0"
       refX="0.0"
       id="Arrow2Lstart"
       style="overflow:visible">
      <path
         id="path4448"
         style="font-size:12.0;fill-rule:evenodd;stroke-width:0.62500000;stroke-linejoin:round"
         d="M 8.7185878,4.0337352 L -2.2072895,0.016013256 L 8.7185884,-4.0017078 C 6.9730900,-1.6296469 6.9831476,1.6157441 8.7185878,4.0337352 z "
         transform="scale(1.1) translate(1,0)" />
    </marker>
    <marker
       inkscape:stockid="Arrow2Lend"
       orient="auto"
       refY="0.0"
       refX="0.0"
       id="Arrow2Lend"
       style="overflow:visible;">
      <path
         id="path4451"
         style="font-size:12.0;fill-rule:evenodd;stroke-width:0.62500000;stroke-linejoin:round;"
         d="M 8.7185878,4.0337352 L -2.2072895,0.016013256 L 8.7185884,-4.0017078 C 6.9730900,-1.6296469 6.9831476,1.6157441 8.7185878,4.0337352 z "
         transform="scale(1.1) rotate(180) translate(1,0)" />
    </marker>
    <marker
       inkscape:stockid="Arrow1Lend"
       orient="auto"
       refY="0.0"
       refX="0.0"
       id="Arrow1Lend"
       style="overflow:visible;">
      <path
         id="path4433"
         d="M 0.0,0.0 L 5.0,-5.0 L -12.5,0.0 L 5.0,5.0 L 0.0,0.0 z "
         style="fill-rule:evenodd;stroke:#000000;stroke-width:1.0pt;marker-start:none;"
         transform="scale(0.8) rotate(180) translate(12.5,0)" />
    </marker>
  </defs>
  <sodipodi:namedview
     id="base"
     pagecolor="#ffffff"
     bordercolor="#666666"
     borderopacity="1.0"
     inkscape:pageopacity="0.0"
     inkscape:pageshadow="2"
     inkscape:zoom="67.620005"
     inkscape:cx="76.577728"
     inkscape:cy="73.263611"
     inkscape:document-units="px"
     inkscape:current-layer="layer1"
     showgrid="true"
     units="px"
     showguides="true"
     inkscape:guide-bbox="true"
     inkscape:window-width="1680"
     inkscape:window-height="943"
     inkscape:window-x="0"
     inkscape:window-y="0"
     inkscape:window-maximized="0"
     inkscape:snap-object-midpoints="true">
    <inkscape:grid
       type="xygrid"
       id="grid9108"
       empspacing="5"
       visible="true"
       enabled="true"
       snapvisiblegridlinesonly="true" />
  </sodipodi:namedview>
  <metadata
     id="metadata9105">
    <rdf:RDF>
      <cc:Work
         rdf:about="">
        <dc:format>image/svg+xml</dc:format>
        <dc:type
           rdf:resource="http://purl.org/dc/dcmitype/StillImage" />
        <dc:title></dc:title>
      </cc:Work>
    </rdf:RDF>
  </metadata>
  <g
     inkscape:label="Layer 1"
     inkscape:groupmode="layer"
     id="layer1"
     transform="translate(0,-902.36221)">
    <path
       style="fill:none;stroke:#000000;stroke-width:1px;stroke-linecap:butt;stroke-linejoin:miter;stroke-opacity:1"
       d="m 75,0 c 0,150 0,150 0,150"
       id="path9129"
       inkscape:connector-curvature="0"
       transform="translate(0,902.36221)" />
    <path
       style="fill:none;stroke:#000000;stroke-width:1px;stroke-linecap:butt;stroke-linejoin:miter;stroke-opacity:1"
       d="m 0,75 c 150,0 150,0 150,0"
       id="path9131"
       inkscape:connector-curvature="0"
       transform="translate(0,902.36221)" />
    <path
       sodipodi:type="spiral"
       style="fill:none;stroke:#000000;stroke-width:1px;stroke-linecap:butt;stroke-linejoin:miter;stroke-opacity:1;marker-end:url(#Arrow2Lstart);marker-start:none"
       id="path9133"
       sodipodi:cx="75"
       sodipodi:cy="75"
       sodipodi:expansion="1"
       sodipodi:revolution="3"
       sodipodi:radius="60.207973"
       sodipodi:argument="-18.005402"
       sodipodi:t0="0"
       d="m 75,75 c 2.005536,2.256229 -2.051891,3.816566 -3.750001,3.333332 -4.601773,-1.309533 -5.000013,-7.325925 -2.916663,-10.833334 3.726624,-6.273933 12.460025,-6.520871 17.916667,-2.499994 8.007842,5.900798 8.091559,17.665492 2.083326,25 -8.008031,9.775747 -22.896518,9.683764 -32.083335,1.666657 C 44.689323,81.57795 44.962839,63.526881 55.000007,52.499993 67.156363,39.144954 88.389952,39.602956 101.25001,51.666675 116.40514,65.883351 115.761,90.31109 101.66666,105.00001 85.394177,121.95895 57.764898,121.12768 41.24999,104.99999 22.484702,86.674682 23.503741,55.838868 41.666678,37.499989 62.04275,16.926538 96.088633,18.133782 116.25001,38.333346 c 22.38295,22.425346 20.9872,59.683896 -1.25002,81.666664"
       transform="translate(0,902.36221)" />
    <g
       transform="translate(60,-59.99999)"
       id="layer1-5"
       inkscape:label="Layer 1">
      <path
         transform="translate(0,1022.3622)"
         d="m 18,15 c 0,1.656854 -1.343146,3 -3,3 -1.656854,0 -3,-1.343146 -3,-3 0,-1.656854 1.343146,-3 3,-3 1.656854,0 3,1.343146 3,3 z"
         sodipodi:ry="3"
         sodipodi:rx="3"
         sodipodi:cy="15"
         sodipodi:cx="15"
         id="path4438"
         style="fill:#000000;fill-opacity:1;stroke:#000000;stroke-width:1;stroke-miterlimit:4;stroke-opacity:1;stroke-dasharray:none"
         sodipodi:type="arc" />
    </g>
  </g>
</svg>
